<svg width="20" height="19" viewBox="0 0 20 19" fill="none" xmlns="http://www.w3.org/2000/svg">
<path d="M16.0954 10.3996L7.25781 9.01562L8.42938 14.2785L16.0954 10.3996Z" fill="#DC1A1A"/>
<path d="M16.0957 10.403L9.43624 1.15625L7.25977 9.02065L16.0957 10.403Z" fill="#DC1A1A"/>
<path d="M7.05292 8.91199L0.0751953 0L9.21274 1.09089L7.05292 8.91199Z" fill="#DC1A1A"/>
<path d="M3.87467 5.18813L0 1.53906H1.01991L3.87467 5.18813Z" fill="#DC1A1A"/>
<path d="M17.9796 5.90625L16.3397 10.3514L13.6816 6.67737L17.9796 5.90625Z" fill="#DC1A1A"/>
<path d="M9.46094 14.0136L15.8954 11.4305L16.1654 10.6094L9.46094 14.0136Z" fill="#DC1A1A"/>
<path d="M4.31445 18.8897L7.07088 9.22656L8.46909 15.5138L4.31445 18.8897Z" fill="#DC1A1A"/>
<path d="M18.2372 5.9375L17.5605 7.77286L20.0003 7.73289L18.2372 5.9375Z" fill="#DC1A1A"/>
</svg>
