<svg width="140" height="136" viewBox="0 0 140 136" fill="none" xmlns="http://www.w3.org/2000/svg">
<path d="M127.077 72.6512C127.077 74.5347 127.077 76.1491 126.808 77.7635C126.269 85.2972 124.385 92.2929 121.423 98.7504C120.346 101.441 119 103.863 117.385 106.284C106.077 124.042 86.1539 135.881 63.5385 135.881C53.8462 135.881 44.6923 133.729 36.6154 129.962C15.0769 120.006 0 97.9432 0 72.6512C0 47.6284 14.5385 26.1033 35.2692 15.8789C33.6539 18.0314 32.0385 20.1839 30.6923 22.6055C30.6923 22.8746 30.4231 22.8745 30.4231 23.1436C29.6154 23.9508 28.8077 24.4889 28 25.2961C26.9231 26.1033 26.1154 27.1796 25.0385 27.9868L24.5 28.5249L23.9615 29.063C23.6923 29.3321 23.4231 29.8702 22.8846 30.1393C22.3462 30.9464 21.5385 31.7536 21 32.5608C18.3077 36.0586 16.1539 39.8255 14.5385 43.8615C14.2692 44.1305 14.2692 44.6687 14 44.9377C13.7308 45.4759 13.7308 46.014 13.4615 46.283C13.4615 46.5521 13.1923 46.8212 13.1923 47.0902C12.9231 47.8974 12.6539 48.4356 12.3846 49.2427C12.1154 49.7809 12.1154 50.319 11.8462 50.5881C11.8462 50.8571 11.5769 51.1262 11.5769 51.3953C11.5769 51.9334 11.3077 52.4715 11.3077 53.0096L10.5 57.8528C10.5 58.3909 10.5 58.66 10.2308 59.1981V65.6556C10.2308 82.8757 18.0385 98.4813 30.6923 108.437C40.3846 116.239 52.5 121.083 65.6923 121.083C77.8077 121.083 88.8462 117.316 98 110.589C104.731 105.746 110.115 99.5576 114.154 92.2929C114.692 91.2166 115.231 90.4094 115.769 89.3332C119 82.6066 120.885 75.3419 120.885 67.539V65.6556C120.885 63.7722 120.885 62.1578 120.615 60.2743L120.885 60.5434C121.692 61.3506 122.5 61.8887 123.308 62.6959C124.115 61.3506 124.923 60.2743 125.731 58.929C126.269 61.3506 126.539 63.7722 126.808 66.4628C127.077 68.8844 127.077 70.7678 127.077 72.6512V72.6512Z" fill="#D1761E"/>
<path d="M71.0778 21.7941L59.2316 0C39.5778 8.87909 26.1162 28.5207 26.1162 51.3911C26.1162 62.9608 29.6162 73.7233 35.5393 82.6024C35.0008 79.6427 35.0008 76.683 35.0008 73.4543C35.2701 50.0458 50.0778 30.1351 71.0778 21.7941V21.7941Z" fill="#D1761E"/>
<path d="M80.5006 32.5521C85.3468 31.2068 90.7314 30.6687 95.8468 30.6687C99.0775 30.6687 102.578 30.9377 105.539 31.4759L105.27 21.7896L104.731 2.41703C102.578 2.14797 100.154 1.87891 97.7314 1.87891C86.9622 1.87891 77.0006 5.37673 68.9237 11.0271L75.3852 22.8658C63.8083 26.9018 54.3852 34.9737 48.4621 45.4672C45.5006 50.5794 43.3468 56.4987 42.5391 62.6872C44.1544 59.4584 46.0391 56.4987 48.1929 53.8081C56.0006 43.5837 67.3083 35.7809 80.5006 32.5521V32.5521Z" fill="#D1761E"/>
<path d="M108.769 21.5273L109.307 35.2496C104.731 33.9043 100.154 33.0971 95.0383 33.0971C85.6152 33.0971 76.7306 35.7877 68.9229 40.3618C59.2306 46.2812 51.6921 55.6984 47.9229 66.73C51.6921 61.6178 56.269 57.0437 61.6536 53.5459C69.4613 48.4337 78.8844 45.474 88.8459 45.474C96.3844 45.474 103.384 47.0884 109.846 50.048C114.692 52.2006 119 55.1602 122.769 58.9271L130.308 47.6265L140 32.828C131.384 25.8324 120.615 21.5273 108.769 21.5273V21.5273Z" fill="#D1761E"/>
<path d="M120.884 66.1917V68.0751C120.884 79.3758 116.307 88.793 115.769 89.8693C115.23 90.9455 114.692 91.7527 114.154 92.8289C110.115 100.094 104.731 106.282 97.9997 111.125C88.8459 117.583 77.8074 121.619 65.692 121.619C52.4997 121.619 40.1151 117.045 30.692 108.973C18.3074 98.7483 10.2305 83.4117 10.2305 66.1917V59.7342C10.2305 59.196 10.2305 58.927 10.4997 58.3888L11.3074 53.5457C11.3074 53.0076 11.5766 52.4695 11.5766 51.9313C11.5766 51.6623 11.8459 51.3932 11.8459 51.1241C12.1151 50.586 12.1151 50.0479 12.3843 49.7788C12.6535 48.9716 12.9228 48.1644 13.192 47.6263C13.192 47.3573 13.4612 47.0882 13.4612 46.8191C13.7305 46.281 13.7305 45.7429 13.9997 45.4738C14.2689 45.2047 14.2689 44.6666 14.5382 44.3976C16.1535 40.3616 18.5766 36.5947 20.9997 33.0969C21.5382 32.2897 22.3459 31.4825 22.8843 30.6753C23.1535 30.4063 23.4228 29.8681 23.9612 29.5991C24.2305 29.33 24.2305 29.061 24.4997 29.061C24.7689 28.7919 24.7689 28.5228 25.0382 28.5228C25.8459 27.4466 26.9228 26.6394 27.9997 25.8322C28.8074 25.025 29.6151 24.4869 30.4228 23.6797C30.4228 23.9488 30.1536 23.9488 30.1536 24.2178C30.1536 24.4869 29.8843 24.7559 29.8843 24.7559C26.6536 31.2135 24.4997 39.0163 23.692 47.0882C23.4228 49.2407 23.4228 51.3932 23.4228 53.8148C23.4228 82.8736 40.3843 106.282 61.3843 106.282H63.5382C66.4997 106.282 69.4613 105.744 72.4228 105.206C86.692 101.439 97.192 88.2549 97.192 72.9183V72.1111C96.9228 62.9629 93.1536 54.622 86.9613 48.9716C91.269 48.9716 95.5766 49.7788 99.6151 50.8551C107.423 52.7385 114.423 56.5054 120.615 61.3485L120.884 61.6176C120.615 62.6939 120.884 64.5773 120.884 66.1917V66.1917Z" fill="#D1761E"/>
<path d="M120.884 66.1937V68.0772C120.884 79.9159 115.5 90.1403 115.5 90.1403C114.961 91.2166 114.423 92.0238 113.884 93.1C109.846 100.365 104.192 106.553 97.461 111.396C88.038 118.392 76.7303 121.89 64.8841 121.89C51.961 121.89 39.5764 117.316 29.6149 109.244C16.6918 98.7504 9.15332 82.8756 9.15332 66.1937C9.15332 49.5118 16.6918 33.6371 29.6149 23.1436L30.1533 22.6055C30.1533 22.8745 29.8841 22.8745 29.8841 23.1436C29.8841 23.4127 29.6149 23.4127 29.6149 23.6817C16.961 34.1752 9.69178 49.5118 9.69178 66.1937C9.69178 82.8756 16.961 98.2122 29.8841 108.975C39.5764 117.047 52.2303 121.352 64.8841 121.352C76.461 121.352 87.7687 117.854 97.1918 110.858C103.923 106.015 109.307 99.8266 113.346 92.5619C113.884 91.4857 114.423 90.6785 114.692 89.6022C114.692 89.6022 120.076 79.6469 120.076 67.8081V65.9246C120.076 64.0412 120.076 62.4268 119.807 60.5434V60.2743L120.076 60.5434L120.346 60.8124C120.884 62.965 120.884 64.5793 120.884 66.1937V66.1937Z" fill="#D1761E"/>
</svg>
